<?xml version="1.0" encoding="UTF-8" standalone="no"?>
<!-- Created with Inkscape (http://www.inkscape.org/) -->

<svg
   xmlns:dc="http://purl.org/dc/elements/1.1/"
   xmlns:cc="http://creativecommons.org/ns#"
   xmlns:rdf="http://www.w3.org/1999/02/22-rdf-syntax-ns#"
   xmlns:svg="http://www.w3.org/2000/svg"
   xmlns="http://www.w3.org/2000/svg"
   xmlns:sodipodi="http://sodipodi.sourceforge.net/DTD/sodipodi-0.dtd"
   xmlns:inkscape="http://www.inkscape.org/namespaces/inkscape"
   width="210mm"
   height="297mm"
   viewBox="0 0 210 297"
   version="1.1"
   id="svg8"
   inkscape:version="0.92.4 5da689c313, 2019-01-14"
   sodipodi:docname="clarity.svg">
  <defs
     id="defs2" />
  <sodipodi:namedview
     id="base"
     pagecolor="#000000"
     bordercolor="#666666"
     borderopacity="1.0"
     inkscape:pageopacity="0"
     inkscape:pageshadow="2"
     inkscape:zoom="0.35"
     inkscape:cx="-106.2591"
     inkscape:cy="578.17979"
     inkscape:document-units="mm"
     inkscape:current-layer="layer1"
     showgrid="false"
     inkscape:window-width="1366"
     inkscape:window-height="682"
     inkscape:window-x="0"
     inkscape:window-y="27"
     inkscape:window-maximized="1"
     inkscape:snap-page="true" />
  <metadata
     id="metadata5">
    <rdf:RDF>
      <cc:Work
         rdf:about="">
        <dc:format>image/svg+xml</dc:format>
        <dc:type
           rdf:resource="http://purl.org/dc/dcmitype/StillImage" />
        <dc:title />
      </cc:Work>
    </rdf:RDF>
  </metadata>
  <g
     inkscape:groupmode="layer"
     id="layer2"
     inkscape:label="Fire">
    <path
       style="fill:#ffffff;stroke:#ffffff;stroke-width:0.26458332px;stroke-linecap:butt;stroke-linejoin:miter;stroke-opacity:1"
       d="m 96.946358,49.80998 c -4.579765,7.388641 -5.34898,5.310716 -16.905777,14.501255 -1.087492,0.864828 -2.283664,4.338229 -2.901306,5.91054 -0.630036,6.754168 6.996438,16.227021 23.110195,16.721066 l -0.329332,25.455449 8.176952,-0.0324 0.0648,-25.312312 c 11.53469,-0.790465 18.7174,-1.366729 20.92967,-10.763793 -0.23095,-5.69709 1.49502,-15.700388 -0.47028,-19.489327 C 120.31292,40.782574 112.07212,35.325444 97.47704,29.223775 Z"
       id="path3744"
       inkscape:connector-curvature="0"
       sodipodi:nodetypes="csccccccscc" />
  </g>
  <g
     inkscape:label="Layer 1"
     inkscape:groupmode="layer"
     id="layer1">
    <path
       style="fill:#ffffff;stroke:#ffffff;stroke-width:0.21892878px;stroke-linecap:butt;stroke-linejoin:miter;stroke-opacity:1"
       d="M 20.898602,262.23225 H 184.97195 v 0 c 0.76211,1.4497 1.74865,2.70035 4.41186,3.3326 l -0.11925,2.81989 c -5.19041,8.25172 -10.71914,11.26641 -16.21654,14.766 -5.99417,1.72827 -12.03738,3.30896 -18.34592,4.09099 v 0 c -3.11635,0.35276 -6.17306,1.03015 -9.2894,1.11036 -2.23293,0.20625 -4.16084,0.17201 -6.91063,-0.0498 v 0 c -1.98038,-0.10322 -3.06691,0.52331 -3.52779,0.0328 -31.93796,-5.3e-4 -63.475977,-1.03285 -95.116621,-1.80041 -7.492476,-6.34268 -13.276571,-7.36451 -19.311301,-11.79681 -1.795783,-1.31894 -3.269254,-3.45664 -5.247905,-5.47936 -1.021966,-1.04473 -1.555993,-2.41374 -2.634599,-3.41647 l 0.126472,-1.55892 v 0 z"
       id="path3738"
       inkscape:connector-curvature="0"
       sodipodi:nodetypes="cccccccccccccsscccc" />
    <path
       style="fill:#ffffff;stroke:#ffffff;stroke-width:0.21011727px;stroke-linecap:butt;stroke-linejoin:miter;stroke-opacity:1"
       d="m 72.040299,251.81063 c 0.257462,-0.003 0.247027,0.42851 0.381575,0.58673 0.375232,0.44121 0.589392,1.07312 1.290475,1.06854 18.427344,-0.12016 32.890411,0.1324 56.578741,-0.0284 l 1.25664,-0.46744 c 8.65548,0.26522 6.90342,-3.30417 7.14153,-10.82787 0.10481,-22.40075 -0.16878,-38.41371 -0.0793,-57.56619 19.72169,-8.44494 -3.98019,-30.7914 -4.41377,-46.9186 -0.35366,-7.6952 18.48214,-37.35201 -0.96966,-32.75388 C 118.32741,106.877 102.65012,101.77144 84.972195,94.716793 53.116719,82.00437 49.241403,106.36985 55.00329,122.41304 c 20.857461,39.45094 3.745502,66.5621 -2.194045,93.03268 -1.589235,3.08831 -1.771202,5.81483 0.942232,8.93736 l 15.296829,14.46924 1.403588,11.5858 c 0.462847,0.50288 0.978664,0.8723 1.588405,1.37258 z"
       id="path3740"
       inkscape:connector-curvature="0"
       sodipodi:nodetypes="cssccccccsccccccc" />
    <path
       style="fill:#000000;stroke:#ffffff;stroke-width:0.26458332px;stroke-linecap:butt;stroke-linejoin:miter;stroke-opacity:1"
       d="m 96.38865,220.98128 c 1.41709,-0.62071 1.101867,-2.54781 -1.386859,-4.85425 -5.860438,-5.4312 -13.35415,-18.48851 -1.557685,-22.41623 0.413228,0.016 0.925961,0.39812 1.337828,0.41141 8.639066,0.27884 10.004226,0.91724 18.839416,0.41498 4.13592,-0.53688 9.73657,-2.37689 11.77191,-5.72075 -0.15802,-1.35632 -0.94891,-2.19868 -3.25111,-2.83807 -0.92039,-0.0964 -4.34975,0.18809 -5.18691,0.35365 -11.69747,4.03186 -15.57031,3.16406 -23.238133,0.09 -4.862326,-2.65609 -2.919452,-6.21798 -0.172775,-8.22329 8.196908,-0.79539 9.221858,-1.34573 17.167398,-1.13566 1.72799,0.57533 5.10461,-1.11035 6.93965,-2.93603 l -0.27327,-5.23945 c -0.55241,-1.79029 -4.6915,-0.0169 -6.06861,-0.71928 -9.08767,1.07208 -8.56642,0.93917 -17.905489,0.75427 -6.02919,-1.55891 -6.518747,-6.91313 0.488684,-10.31281 8.712075,-1.16348 12.762205,-1.58244 21.726065,-1.48697 4.24686,1.03311 6.06561,-9.84924 -0.64313,-9.45997 -10.4882,1.3854 -12.82929,2.34685 -23.569424,2.4726 -3.018278,-3.57965 -2.064955,-5.92001 -0.534538,-8.55263 11.198302,-1.30099 12.332082,-1.74861 23.530372,-1.78982 3.12954,0.0647 5.49973,-8.86299 -0.8963,-10.10482 -12.63777,-2.9597 -13.39969,-0.25057 -25.0395,1.7384 -6.434526,1.85002 -8.632631,3.0457 -9.524425,8.42292 -0.67129,4.68621 1.799341,9.69179 1.484105,12.82271 -0.621994,6.17763 3.170661,10.81537 3.130281,21.41382 -3.690051,21.8688 -8.519112,28.29242 2.422806,44.13129 0.550081,0.79627 0.678222,1.89195 1.299497,2.74682 1.838107,2.52922 7.278688,1.87167 9.110146,0.0172 z"
       id="path3810"
       inkscape:connector-curvature="0"
       sodipodi:nodetypes="cscsccccccccccccccccccccscsscc" />
  </g>
</svg>
