<?xml version="1.0" encoding="UTF-8" standalone="no"?>
<!-- Created with Inkscape (http://www.inkscape.org/) -->

<svg
   xmlns:dc="http://purl.org/dc/elements/1.1/"
   xmlns:cc="http://creativecommons.org/ns#"
   xmlns:rdf="http://www.w3.org/1999/02/22-rdf-syntax-ns#"
   xmlns:svg="http://www.w3.org/2000/svg"
   xmlns="http://www.w3.org/2000/svg"
   xmlns:sodipodi="http://sodipodi.sourceforge.net/DTD/sodipodi-0.dtd"
   xmlns:inkscape="http://www.inkscape.org/namespaces/inkscape"
   width="210mm"
   height="297mm"
   viewBox="0 0 210 297"
   version="1.1"
   id="svg8"
   inkscape:version="0.92.4 5da689c313, 2019-01-14"
   sodipodi:docname="courage.svg">
  <defs
     id="defs2" />
  <sodipodi:namedview
     id="base"
     pagecolor="#000000"
     bordercolor="#666666"
     borderopacity="1.0"
     inkscape:pageopacity="1"
     inkscape:pageshadow="2"
     inkscape:zoom="0.28284271"
     inkscape:cx="118.38722"
     inkscape:cy="622.52234"
     inkscape:document-units="mm"
     inkscape:current-layer="layer2"
     showgrid="false"
     inkscape:window-width="1366"
     inkscape:window-height="682"
     inkscape:window-x="0"
     inkscape:window-y="27"
     inkscape:window-maximized="1" />
  <metadata
     id="metadata5">
    <rdf:RDF>
      <cc:Work
         rdf:about="">
        <dc:format>image/svg+xml</dc:format>
        <dc:type
           rdf:resource="http://purl.org/dc/dcmitype/StillImage" />
        <dc:title></dc:title>
      </cc:Work>
    </rdf:RDF>
  </metadata>
  <g
     inkscape:groupmode="layer"
     id="layer4"
     inkscape:label="Drop">
    <path
       style="fill:#ffffff;stroke:#ffffff;stroke-width:0.57819021;stroke-linecap:butt;stroke-linejoin:miter;stroke-miterlimit:4;stroke-dasharray:none;stroke-opacity:1"
       d="m 101.92476,54.185404 c -10.249641,12.142987 -19.520692,24.68176 -27.827526,37.18661 -0.118942,0.179052 -0.278749,0.3285 -0.356232,0.537132 -1.528518,4.115691 -3.362035,7.741233 -6.307586,9.809404 -0.165599,0.11626 -0.229573,0.36762 -0.343813,0.55158 -7.103929,11.43966 -13.069469,23.4296 -18.914963,33.5419 -5.220763,9.03157 -5.979253,21.04804 -8.009507,32.30835 0.702199,18.32594 5.074897,32.08054 7.448418,43.67574 0.05664,0.27668 0.01776,0.61156 0.172021,0.82544 9.064529,12.56827 18.338474,21.23831 27.591302,26.88062 0.197336,0.12034 0.372661,0.32927 0.591975,0.35688 6.25664,0.78789 12.245925,5.84276 16.504725,6.45714 31.737926,4.57848 51.872426,-6.09763 65.579386,-20.95574 0.18696,-0.20266 0.41176,-0.36555 0.55556,-0.61155 8.13046,-13.90946 16.9158,-29.73162 18.33517,-43.03012 0.5638,-5.2824 -0.11667,-17.48731 -0.21739,-21.21622 -2.69143,-11.69943 -7.92112,-24.37567 -15.21352,-38.82709 -0.0819,-0.16231 -0.16386,-0.32453 -0.24587,-0.48666 -4.20138,-8.30619 -9.64271,-16.07747 -14.41057,-23.899103 -3.84448,-6.306837 -9.92409,-11.160716 -13.53732,-17.894267 -4.61205,-8.594927 -11.51314,-16.106117 -20.43493,-25.652753 -3.4522,-2.25108 -6.89897,-4.566841 -10.95933,0.442707 z"
       id="path833"
       inkscape:connector-curvature="0"
       sodipodi:nodetypes="cssssscsssssssscsssscc" />
  </g>
  <g
     inkscape:groupmode="layer"
     id="layer2"
     inkscape:label="Symbol">
    <path
       style="fill:#000006;fill-opacity:1;stroke:#000000;stroke-width:0.10703441;stroke-linecap:butt;stroke-linejoin:miter;stroke-miterlimit:4;stroke-dasharray:none;stroke-opacity:1"
       d="m 141.084,128.5953 c -9.13272,11.75132 -9.49508,36.27365 -12.20967,50.29155 -0.0672,0.34781 -0.2226,0.66393 -0.33675,0.9855 -4.43118,12.47046 -1.71837,15.1285 -4.77961,27.80507 -0.50764,0.71627 -2.45145,2.14276 -3.54784,0.86172 -0.24624,-0.28757 -0.46513,-0.37076 -0.61467,-0.50237 -7.5481,-6.64245 -13.19378,-8.49005 -20.669408,2.65137 -3.742921,2.58954 -4.416353,2.95596 -4.27688,-3.74514 0.903232,-3.95682 3.362035,-7.66383 6.790108,-12.62712 0.71568,-1.0362 0.47866,-2.61243 0.55011,-4.12262 -0.43367,-6.10504 -8.887142,-9.96776 -12.824062,-16.49034 -3.394188,-5.62339 -5.869019,-12.31159 -7.611751,-20.69706 2.084117,-2.19573 3.744159,-1.38478 5.981136,-2.89163 -0.661614,-2.39251 -2.854,-4.65235 -5.061823,-6.88224 -1.616508,-7.02713 2.070153,-7.26081 4.897711,-6.61602 5.081435,4.34411 8.639731,9.49519 12.334044,14.57421 0.08808,2.92305 0.241756,5.89575 -4.5695,5.11078 -2.734433,-1.71746 -5.203845,-4.14314 -6.764495,-4.4777 -0.03797,1.38517 -0.254837,2.7697 0.164109,3.67073 3.942355,8.11206 8.684354,14.81347 14.723941,20.98096 2.28768,2.87527 4.24711,0.90841 9.23078,-4.36161 2.50246,-2.64624 7.26754,-4.97384 10.06266,-10.43266 2.19095,-5.51141 3.64214,-10.43497 4.81435,-15.13684 1.65036,-6.61949 2.74787,-12.79967 4.5785,-19.56248 4.06341,-4.35842 9.57128,-7.4564 9.13901,1.61394 z"
       id="path3728"
       inkscape:connector-curvature="0"
       sodipodi:nodetypes="csscssccscscccccccccscscc" />
    <path
       style="fill:#000006;fill-opacity:1;stroke:#000000;stroke-width:0.10703441;stroke-linecap:butt;stroke-linejoin:miter;stroke-miterlimit:4;stroke-dasharray:none;stroke-opacity:1"
       d="m 120.90203,154.41804 0.50773,-7.93512 2.79249,-6.38842 c -0.42365,-5.39082 1.1199,-11.64199 -1.96744,-15.3995 -3.2687,2.41252 -4.49134,7.79584 -5.71147,12.1837 -0.88508,3.18297 -2.21558,6.10091 -2.98327,9.33523 -0.9058,0.2235 -1.62763,0.0573 -2.195,-0.43627 -3.75039,-5.39465 -8.73843,-12.03775 -15.321414,-19.73786 -5.440509,-0.36459 -5.214604,-0.96905 -4.315637,4.84175 4.527192,6.00584 9.054371,12.31522 13.581571,17.61864 1.59063,0.23976 4.56171,0.0823 6.72731,0.60527 1.58615,2.11709 0.7805,4.51575 1.01544,6.79192 3.96043,6.92099 2.22172,5.95356 7.86969,-1.47934 z"
       id="path4546"
       inkscape:connector-curvature="0"
       sodipodi:nodetypes="ccccscccccccc" />
    <path
       style="fill:#000006;fill-opacity:1;stroke:#000000;stroke-width:0.10703441;stroke-linecap:butt;stroke-linejoin:miter;stroke-miterlimit:4;stroke-dasharray:none;stroke-opacity:1"
       d="m 97.15854,120.39671 c 4.04403,4.16676 7.27857,8.6195 10.63577,13.02886 2.79472,0.84395 5.50177,1.54409 4.66719,-3.56631 -3.31067,-4.39718 -6.24428,-8.81819 -10.32165,-13.21906 -2.238527,-1.75143 -5.571336,-2.1248 -4.98131,3.75651 z"
       id="path4548"
       inkscape:connector-curvature="0"
       sodipodi:nodetypes="ccccc" />
  </g>
</svg>
