<?xml version="1.0" encoding="UTF-8" standalone="no"?>
<!-- Created with Inkscape (http://www.inkscape.org/) -->

<svg
   xmlns:dc="http://purl.org/dc/elements/1.1/"
   xmlns:cc="http://creativecommons.org/ns#"
   xmlns:rdf="http://www.w3.org/1999/02/22-rdf-syntax-ns#"
   xmlns:svg="http://www.w3.org/2000/svg"
   xmlns="http://www.w3.org/2000/svg"
   xmlns:sodipodi="http://sodipodi.sourceforge.net/DTD/sodipodi-0.dtd"
   xmlns:inkscape="http://www.inkscape.org/namespaces/inkscape"
   width="210mm"
   height="297mm"
   viewBox="0 0 210 297"
   version="1.1"
   id="svg8"
   inkscape:version="0.92.4 5da689c313, 2019-01-14"
   sodipodi:docname="courage.svg">
  <defs
     id="defs2" />
  <sodipodi:namedview
     id="base"
     pagecolor="#ffffff"
     bordercolor="#666666"
     borderopacity="1.0"
     inkscape:pageopacity="0.0"
     inkscape:pageshadow="2"
     inkscape:zoom="0.28284271"
     inkscape:cx="46.195045"
     inkscape:cy="638.31532"
     inkscape:document-units="mm"
     inkscape:current-layer="layer2"
     showgrid="false"
     inkscape:window-width="1366"
     inkscape:window-height="682"
     inkscape:window-x="0"
     inkscape:window-y="27"
     inkscape:window-maximized="1" />
  <metadata
     id="metadata5">
    <rdf:RDF>
      <cc:Work
         rdf:about="">
        <dc:format>image/svg+xml</dc:format>
        <dc:type
           rdf:resource="http://purl.org/dc/dcmitype/StillImage" />
        <dc:title></dc:title>
      </cc:Work>
    </rdf:RDF>
  </metadata>
  <g
     inkscape:label="Layer 1"
     inkscape:groupmode="layer"
     id="layer1" />
  <g
     inkscape:groupmode="layer"
     id="layer2"
     inkscape:label="Symbol">
    <path
       style="fill:#000000;stroke:#000100;stroke-width:0.0979592;stroke-linecap:butt;stroke-linejoin:miter;stroke-miterlimit:4;stroke-dasharray:none;stroke-opacity:1"
       d="m 141.084,116.02698 c -9.13272,9.84306 -9.49508,30.3833 -12.20967,42.12487 -0.0672,0.29133 -0.2226,0.55612 -0.33675,0.82547 -4.43118,10.44542 -1.71837,12.67184 -4.77961,23.2899 -0.50764,0.59996 -2.45145,1.7948 -3.54784,0.72179 -0.24624,-0.24088 -0.46513,-0.31056 -0.61467,-0.42079 -7.5481,-5.56381 -13.19378,-7.11139 -20.669408,2.22082 -3.742921,2.16903 -4.416353,2.47595 -4.27688,-3.13698 0.903232,-3.31428 3.362035,-6.41933 6.790108,-10.57665 0.71568,-0.86793 0.47866,-2.1882 0.55011,-3.45316 -0.43367,-5.11366 -8.887142,-8.34913 -12.824062,-13.81253 -3.394188,-4.71022 -5.869019,-10.31235 -7.611751,-17.33613 2.084117,-1.83917 3.744159,-1.15991 5.981136,-2.42207 -0.661614,-2.00399 -2.854,-3.89687 -5.061823,-5.76465 -1.616508,-5.88602 2.070153,-6.08175 4.897711,-5.54167 5.081435,3.63869 8.639731,7.9533 12.334044,12.20755 0.08808,2.44839 0.241756,4.93836 -4.5695,4.28086 -2.734433,-1.43857 -5.203845,-3.47034 -6.764495,-3.75058 -0.03797,1.16024 -0.254837,2.31994 0.164109,3.07465 3.942355,6.79477 8.684354,12.40796 14.723941,17.57394 2.28768,2.40836 4.24711,0.76089 9.23078,-3.65335 2.50246,-2.21652 7.26754,-4.16615 10.06266,-8.73854 2.19095,-4.61643 3.64214,-8.74046 4.81435,-12.67881 1.65036,-5.54458 2.74787,-10.72118 4.5785,-16.3858 4.06341,-3.65067 9.57128,-6.24558 9.13901,1.35186 z"
       id="path3728"
       inkscape:connector-curvature="0"
       sodipodi:nodetypes="csscssccscscccccccccscscc" />
    <path
       style="fill:#000000;stroke:#000000;stroke-width:0.0979592;stroke-linecap:butt;stroke-linejoin:miter;stroke-miterlimit:4;stroke-dasharray:none;stroke-opacity:1"
       d="m 120.90203,137.65645 0.50773,-6.64656 2.79249,-5.35103 c -0.42365,-4.51542 1.1199,-9.75148 -1.96744,-12.89882 -3.2687,2.02076 -4.49134,6.5299 -5.71147,10.20523 -0.88508,2.66609 -2.21558,5.1102 -2.98327,7.81931 -0.9058,0.18721 -1.62763,0.048 -2.195,-0.36542 -3.75039,-4.51863 -8.73843,-10.08299 -15.321414,-16.5327 -5.440509,-0.30539 -5.214604,-0.81169 -4.315637,4.05552 4.527192,5.03057 9.054371,10.31538 13.581571,14.75761 1.59063,0.20082 4.56171,0.0689 6.72731,0.50698 1.58615,1.7733 0.7805,3.78245 1.01544,5.689 3.96043,5.79711 2.22172,4.98678 7.86969,-1.23912 z"
       id="path4546"
       inkscape:connector-curvature="0"
       sodipodi:nodetypes="ccccscccccccc" />
    <path
       style="fill:#000000;stroke:#010000;stroke-width:0.0979592;stroke-linecap:butt;stroke-linejoin:miter;stroke-miterlimit:4;stroke-dasharray:none;stroke-opacity:1"
       d="m 97.15854,109.15973 c 4.04403,3.49014 7.27857,7.21981 10.63577,10.91315 2.79472,0.70691 5.50177,1.29335 4.66719,-2.98719 -3.31067,-3.68313 -6.24428,-7.38623 -10.32165,-11.07246 -2.238527,-1.46702 -5.571336,-1.77976 -4.98131,3.1465 z"
       id="path4548"
       inkscape:connector-curvature="0"
       sodipodi:nodetypes="ccccc" />
  </g>
</svg>
